<?xml version="1.0" standalone="no"?>
<!DOCTYPE svg PUBLIC "-//W3C//DTD SVG 20010904//EN"
 "http://www.w3.org/TR/2001/REC-SVG-20010904/DTD/svg10.dtd">
<svg version="1.0" xmlns="http://www.w3.org/2000/svg"
 width="800.000000pt" height="122.000000pt" viewBox="0 0 800.000000 122.000000"
 preserveAspectRatio="xMidYMid meet">

<g transform="translate(0.000000,122.000000) scale(0.100000,-0.100000)"
fill="#000000" stroke="none">
<path d="M1522 978 c-11 -29 -48 -118 -82 -198 -34 -80 -72 -170 -85 -200 -12
-30 -37 -89 -54 -130 -17 -41 -31 -76 -31 -77 0 -2 15 -3 33 -3 33 0 33 0 92
138 32 75 77 183 101 240 23 57 45 106 48 109 7 7 46 -83 46 -106 0 -9 -4 -21
-9 -26 -16 -18 -114 -256 -107 -262 3 -3 13 11 22 33 8 21 30 75 48 119 19 44
36 89 40 99 11 32 29 4 81 -124 26 -63 51 -119 56 -124 5 -6 9 -16 9 -24 0
-11 -26 -13 -137 -12 -204 3 -184 8 -182 -47 1 -27 -1 -56 -5 -65 -5 -11 -4
-18 3 -18 6 0 11 9 11 19 0 47 19 51 225 51 167 0 194 -2 199 -16 16 -43 14
-43 -161 -47 l-168 -3 183 -2 c100 -1 182 -1 182 1 0 2 -25 57 -55 122 -30 66
-55 125 -55 131 0 7 -11 32 -25 55 -14 24 -25 50 -25 57 0 7 -13 40 -30 74
-16 33 -30 67 -30 75 0 7 -10 24 -23 36 -13 12 -36 54 -52 92 -16 39 -32 74
-35 78 -4 4 -16 -16 -28 -45z"/>
<path d="M7595 1009 c-4 -13 -16 -42 -26 -64 -10 -22 -48 -112 -84 -200 -37
-88 -73 -173 -80 -190 -8 -16 -26 -59 -40 -95 -15 -36 -29 -71 -32 -77 -3 -9
6 -13 29 -13 l34 0 91 218 c51 119 97 229 102 245 6 15 13 27 16 27 8 0 45
-88 45 -108 0 -8 6 -23 14 -31 10 -12 75 -159 123 -279 5 -11 -25 -13 -149
-11 -85 1 -159 -1 -165 -4 -7 -5 -8 -20 -3 -44 5 -22 5 -44 -1 -56 -6 -10 -8
-21 -5 -24 3 -4 11 8 17 25 6 19 20 34 32 37 12 3 105 4 207 3 l185 -3 0 -25
0 -25 -165 -5 -165 -6 183 -2 182 -2 -14 33 c-8 17 -26 59 -41 92 -29 64 -43
98 -80 185 -13 30 -37 87 -54 126 -17 39 -31 75 -31 81 0 6 -12 24 -26 41 -14
16 -38 58 -51 93 -31 78 -39 88 -48 58z"/>
<path d="M2823 993 c-66 -23 -118 -89 -137 -173 -21 -92 -20 -201 3 -282 23
-86 42 -113 98 -146 25 -15 53 -34 62 -43 69 -69 243 -79 321 -19 35 27 5 25
-33 -2 -27 -20 -45 -23 -117 -23 -63 0 -94 5 -117 18 -18 10 -33 21 -33 26 0
4 35 11 79 14 84 5 110 15 154 55 33 32 34 39 3 53 -21 10 -30 7 -61 -17 -34
-26 -46 -29 -116 -29 -68 0 -81 3 -101 23 -21 21 -23 31 -22 140 0 68 5 133
13 155 27 79 91 127 171 127 23 0 40 5 40 11 0 14 -79 4 -125 -16 -80 -33
-118 -129 -113 -285 3 -101 -4 -119 -29 -69 -32 66 -31 285 1 347 30 57 62 76
134 80 87 5 150 -11 162 -42 5 -13 20 -26 36 -30 15 -4 40 -16 55 -27 35 -25
47 -24 24 1 -10 11 -23 20 -30 20 -6 0 -19 6 -29 13 -18 13 -18 14 0 32 18 17
17 19 -16 46 -67 56 -186 75 -277 42z"/>
<path d="M3486 996 c-62 -20 -112 -68 -136 -133 -18 -48 -22 -79 -22 -178 0
-181 30 -248 143 -317 24 -15 57 -38 72 -50 25 -20 40 -23 120 -23 68 0 101 5
127 18 39 19 90 89 90 122 -1 13 -8 6 -23 -24 -12 -25 -39 -58 -59 -74 -49
-39 -148 -48 -222 -20 -71 26 -71 43 1 43 88 0 132 16 180 66 55 57 66 94 68
247 2 71 6 131 9 134 9 10 38 -68 47 -127 l8 -55 -3 61 c-4 64 -10 81 -61 159
-16 25 -39 60 -50 78 -43 68 -189 106 -289 73z m189 -70 c19 -8 35 -21 35 -27
0 -7 9 -22 20 -34 45 -48 52 -257 12 -347 -11 -25 -35 -56 -53 -69 -29 -20
-46 -24 -112 -24 -73 0 -80 2 -102 28 -13 15 -29 27 -34 27 -26 0 -45 67 -49
169 -7 165 20 245 92 277 41 18 148 18 191 0z"/>
<path d="M3605 880 c-100 -26 -157 -95 -154 -190 0 -15 6 -2 15 29 26 98 87
151 173 151 23 0 41 5 41 10 0 11 -31 12 -75 0z"/>
<path d="M5582 997 c-51 -19 -103 -66 -123 -113 -29 -65 -41 -183 -28 -284 13
-110 41 -166 98 -199 24 -14 60 -41 80 -59 45 -41 66 -47 171 -47 72 0 91 4
123 24 21 13 36 26 33 28 -3 3 -22 -5 -43 -18 -32 -20 -51 -24 -123 -24 -62 0
-94 5 -117 18 -18 10 -33 21 -33 26 0 4 35 11 78 14 78 5 113 17 162 56 20 17
23 23 14 38 -17 27 -41 27 -74 0 -51 -43 -188 -48 -224 -8 -12 13 -17 42 -19
112 l-2 94 35 3 c25 2 52 16 87 45 28 23 82 68 121 100 38 31 74 57 79 57 13
0 53 -43 53 -57 0 -10 -125 -121 -204 -181 -18 -14 -24 -22 -14 -20 9 1 70 48
134 102 l117 99 -37 34 c-22 20 -35 41 -32 49 9 24 -51 82 -110 104 -61 22
-150 25 -202 7z m180 -67 c48 -14 56 -27 24 -42 -14 -6 -26 -16 -26 -22 0 -14
-173 -158 -202 -169 -19 -7 -20 -14 -16 -112 4 -109 -4 -126 -31 -70 -17 35
-26 172 -17 258 9 78 35 124 86 149 39 20 125 24 182 8z"/>
<path d="M5653 864 c-38 -16 -93 -87 -92 -118 0 -15 6 -9 19 20 19 44 65 85
115 102 20 7 24 10 10 10 -11 0 -35 -6 -52 -14z"/>
<path d="M148 994 c-5 -4 -8 -146 -8 -316 l0 -308 48 0 c26 0 53 -5 59 -11 8
-8 13 -8 17 0 4 6 31 11 60 11 113 0 205 50 230 125 17 48 29 54 44 20 26 -56
9 -125 -38 -162 -35 -28 -124 -45 -217 -41 -53 2 -93 0 -93 -5 0 -5 54 -8 128
-5 116 3 132 6 173 30 55 32 74 66 73 129 0 39 -7 57 -31 87 -42 52 -46 72
-23 107 28 42 26 104 -4 146 -14 19 -33 52 -44 74 -42 87 -102 116 -257 122
-60 3 -113 2 -117 -3z m236 -77 c36 -11 56 -32 82 -85 14 -28 -24 -81 -76
-107 -49 -25 -65 -45 -35 -45 32 0 110 -49 128 -80 54 -98 -28 -164 -201 -165
l-73 0 0 243 c0 133 1 244 1 247 0 10 136 3 174 -8z m181 -137 c18 -35 19 -70
3 -105 -14 -31 -25 -31 -61 0 l-27 24 25 37 c14 20 25 45 25 55 0 28 18 23 35
-11z"/>
<path d="M257 874 c-15 -15 6 -19 90 -15 60 3 80 6 63 11 -31 10 -144 12 -153
4z"/>
<path d="M254 650 c0 -102 2 -143 3 -92 2 50 2 134 0 185 -1 50 -3 9 -3 -93z"/>
<path d="M797 994 c-4 -4 -7 -146 -7 -316 l0 -308 54 0 c57 0 75 -15 60 -54
-6 -14 10 -16 162 -14 l169 2 -155 6 -155 5 0 25 0 25 120 5 120 5 0 25 0 25
-120 5 -120 5 -3 223 c-2 150 -6 221 -13 217 -6 -5 -9 -84 -8 -223 l1 -217
-23 0 -24 0 -5 280 c-5 272 -6 280 -25 283 -12 2 -24 0 -28 -4z"/>
<path d="M2010 995 c0 -3 -1 -143 -1 -312 l0 -308 30 -3 31 -3 0 235 c0 147 4
236 10 236 5 0 17 -14 25 -31 14 -25 16 -70 15 -270 0 -131 3 -239 7 -239 5 0
8 97 7 215 -1 151 2 215 10 215 6 0 60 -81 120 -180 107 -176 110 -180 143
-180 28 0 37 -6 54 -35 12 -19 25 -35 30 -35 5 0 9 125 9 292 0 160 -3 289 -6
286 -3 -3 -5 -123 -4 -267 1 -232 -1 -261 -15 -261 -38 0 -45 56 -45 360 l0
290 -30 0 -30 0 0 -235 c0 -155 -4 -235 -10 -235 -6 0 -14 8 -17 17 -8 21
-155 257 -230 371 -43 65 -60 82 -79 82 -13 0 -24 -2 -24 -5z"/>
<path d="M4488 994 c-5 -4 -8 -193 -8 -421 l0 -413 30 0 30 0 0 385 0 385 81
0 c111 0 153 -14 189 -64 54 -72 38 -138 -44 -191 -52 -33 -55 -37 -44 -60 15
-33 26 -32 84 8 56 37 94 88 94 126 0 33 14 56 29 47 18 -11 33 -87 26 -131
-6 -43 -44 -89 -93 -115 -13 -6 -21 -14 -19 -17 10 -9 66 28 96 64 27 33 31
45 31 98 0 52 -4 65 -29 95 -15 19 -37 53 -49 75 -27 54 -68 91 -122 111 -48
17 -269 32 -282 18z"/>
<path d="M5120 685 l0 -315 30 0 30 0 0 315 0 315 -30 0 -30 0 0 -315z"/>
<path d="M6118 994 c-5 -4 -8 -146 -8 -315 l0 -308 58 -3 c57 -3 57 -3 60 -37
l3 -34 92 5 c73 4 103 10 142 31 107 55 155 132 155 253 0 74 -12 110 -62 189
-87 138 -125 174 -215 201 -56 17 -215 30 -225 18z m204 -78 c58 -17 142 -99
157 -153 44 -157 -43 -299 -194 -320 l-45 -6 2 209 3 209 65 5 c58 4 61 6 31
13 -18 4 -51 7 -72 7 l-39 0 -2 -222 -3 -223 -23 0 -23 0 0 245 c0 135 1 246
1 248 0 8 104 0 142 -12z m265 -213 c24 -53 23 -186 -1 -233 -23 -44 -73 -97
-110 -117 -71 -37 -191 -55 -224 -34 -30 19 -8 44 53 61 164 45 235 127 243
278 2 45 9 82 14 82 5 0 16 -17 25 -37z"/>
<path d="M6788 994 c-5 -4 -8 -146 -8 -316 l0 -309 33 3 32 3 3 278 2 277 68
-1 c102 -1 141 -16 169 -66 22 -40 22 -45 9 -77 -10 -23 -28 -42 -55 -55 -22
-12 -42 -25 -45 -30 -3 -5 15 -53 40 -107 26 -55 59 -127 75 -161 27 -58 31
-62 66 -65 30 -2 40 -9 53 -33 20 -40 19 -39 25 -33 7 7 -132 298 -143 298 -4
0 -16 16 -25 35 l-17 35 44 43 c24 25 45 57 49 75 12 61 57 8 57 -68 0 -34 -7
-46 -41 -80 -51 -50 -43 -53 11 -4 41 37 58 83 45 123 -3 11 -22 39 -41 62
-19 22 -34 47 -34 54 0 25 -54 78 -99 98 -33 14 -75 21 -156 25 -60 2 -113 1
-117 -4z"/>
<path d="M4597 874 c-15 -15 6 -19 95 -15 61 2 86 6 73 11 -24 10 -159 13
-168 4z"/>
<path d="M5240 878 c-5 -77 -3 -578 3 -578 4 0 7 131 7 290 0 160 -2 290 -5
290 -3 0 -5 -1 -5 -2z"/>
<path d="M6905 868 c-8 -22 -10 -568 -2 -568 4 0 7 126 7 280 l0 280 83 1 c56
1 74 4 57 9 -41 13 -140 12 -145 -2z"/>
<path d="M7582 598 c-29 -68 -52 -127 -52 -133 0 -14 25 26 40 65 7 19 24 59
36 87 24 55 39 103 32 103 -3 0 -28 -55 -56 -122z"/>
<path d="M3891 594 c0 -11 3 -14 6 -6 3 7 2 16 -1 19 -3 4 -6 -2 -5 -13z"/>
<path d="M3886 545 c-3 -9 -5 -33 -5 -53 2 -33 2 -32 9 13 8 53 6 66 -4 40z"/>
<path d="M4590 116 c0 -9 5 -16 10 -16 6 0 10 4 10 9 0 6 -4 13 -10 16 -5 3
-10 -1 -10 -9z"/>
</g>
</svg>
